# xmcd CD database file generated by Grip 2.91
# 
# Track frame offsets:
#       150
#       12859
#       27340
#       44217
#       68100
#       79960
#       100347
#       115210
#       135752
#       150432
#       166247
#       183735
#       206809
# 
# Disc length: 2992 seconds
# 
# Revision: 3
# Processed by: cddbd v1.4b41PL1 Copyright (c) Steve Scherf et al.
# Submitted via: Grip 2.91
# 
DISCID=ad0bae0d
DTITLE=Tuxedo Cowboy - Give It A Try
DYEAR=1900
DGENRE=
TTITLE0=Stand Guard
TTITLE1=Cold Hearted Blue
TTITLE2=Debra Anne
TTITLE3=How The West Was Won
TTITLE4=Escape To New Mexico
TTITLE5=Best Friends
TTITLE6=Give It A Try
TTITLE7=He Loved Her Then
TTITLE8=My Guardian Angel
TTITLE9=Woman Of The Heart
TTITLE10=Days Gone By
TTITLE11=Circus Love
TTITLE12=Lay Me Down
EXTD=
EXTT0=
EXTT1=
EXTT2=
EXTT3=
EXTT4=
EXTT5=
EXTT6=
EXTT7=
EXTT8=
EXTT9=
EXTT10=
EXTT11=
EXTT12=
PLAYORDER=
